<svg width="31" height="31" viewBox="0 0 31 31" fill="none" xmlns="http://www.w3.org/2000/svg">
<path d="M16.8278 2.5846C17.7704 2.58098 18.713 2.59045 19.6553 2.61301L19.9059 2.62206C20.1952 2.63239 20.4807 2.64531 20.8255 2.66081C22.1999 2.72539 23.1376 2.94239 23.9604 3.26143C24.8129 3.58951 25.5311 4.03385 26.2492 4.75201C26.9059 5.39734 27.4141 6.17794 27.7385 7.03956C28.0576 7.86235 28.2746 8.80139 28.3392 10.1757C28.3547 10.5193 28.3676 10.8061 28.3779 11.0954L28.3857 11.346C28.4086 12.2878 28.4185 13.23 28.4154 14.1721L28.4167 15.1357V16.8278C28.4198 17.7704 28.4099 18.713 28.387 19.6553L28.3792 19.9058C28.3689 20.1952 28.356 20.4806 28.3405 20.8255C28.2759 22.1998 28.0563 23.1376 27.7385 23.9604C27.4152 24.8229 26.9068 25.6042 26.2492 26.2492C25.6034 26.9058 24.8224 27.414 23.9604 27.7385C23.1376 28.0576 22.1999 28.2746 20.8255 28.3391C20.4807 28.3546 20.1952 28.3676 19.9059 28.3779L19.6553 28.3856C18.713 28.4086 17.7704 28.4185 16.8278 28.4153L15.8642 28.4166H14.1735C13.2309 28.4198 12.2883 28.4099 11.346 28.3869L11.0954 28.3792C10.7888 28.3681 10.4822 28.3551 10.1757 28.3404C8.80141 28.2758 7.86366 28.0563 7.03958 27.7385C6.17763 27.4148 5.39688 26.9065 4.75203 26.2492C4.09463 25.6038 3.58595 24.8227 3.26145 23.9604C2.94241 23.1376 2.72541 22.1998 2.66083 20.8255C2.64644 20.519 2.63352 20.2125 2.62208 19.9058L2.61562 19.6553C2.5918 18.713 2.58104 17.7704 2.58333 16.8278V14.1721C2.57972 13.23 2.58919 12.2879 2.61174 11.346L2.62078 11.0954C2.63112 10.8061 2.64403 10.5193 2.65953 10.1757C2.72412 8.8001 2.94112 7.86364 3.26016 7.03956C3.58485 6.17752 4.09453 5.39713 4.75333 4.75331C5.39773 4.09553 6.17798 3.58638 7.03958 3.26143C7.86366 2.94239 8.80012 2.72539 10.1757 2.66081L11.0954 2.62206L11.346 2.6156C12.2879 2.5918 13.23 2.58103 14.1722 2.58331L16.8278 2.5846ZM15.5 9.04293C14.6443 9.03083 13.7947 9.18892 13.0006 9.50802C12.2065 9.82712 11.4837 10.3009 10.8743 10.9017C10.2649 11.5026 9.78101 12.2185 9.45071 13.008C9.12042 13.7975 8.95033 14.6448 8.95033 15.5006C8.95033 16.3564 9.12042 17.2037 9.45071 17.9932C9.78101 18.7827 10.2649 19.4987 10.8743 20.0995C11.4837 20.7004 12.2065 21.1741 13.0006 21.4932C13.7947 21.8123 14.6443 21.9704 15.5 21.9583C17.2128 21.9583 18.8556 21.2779 20.0667 20.0667C21.2779 18.8555 21.9583 17.2128 21.9583 15.5C21.9583 13.7871 21.2779 12.1444 20.0667 10.9332C18.8556 9.72207 17.2128 9.04293 15.5 9.04293ZM15.5 11.6263C16.0147 11.6168 16.5262 11.71 17.0045 11.9004C17.4828 12.0908 17.9184 12.3746 18.2858 12.7352C18.6532 13.0959 18.9451 13.5261 19.1444 14.0008C19.3436 14.4755 19.4463 14.9851 19.4464 15.5C19.4465 16.0148 19.344 16.5245 19.1449 16.9992C18.9458 17.474 18.654 17.9043 18.2868 18.2651C17.9195 18.6259 17.484 18.9098 17.0057 19.1004C16.5275 19.2909 16.016 19.3843 15.5013 19.375C14.4736 19.375 13.4879 18.9667 12.7612 18.24C12.0345 17.5133 11.6263 16.5277 11.6263 15.5C11.6263 14.4723 12.0345 13.4866 12.7612 12.7599C13.4879 12.0332 14.4736 11.625 15.5013 11.625L15.5 11.6263ZM22.2812 7.10543C21.8645 7.12211 21.4705 7.29937 21.1815 7.6001C20.8926 7.90083 20.7312 8.30169 20.7312 8.71872C20.7312 9.13576 20.8926 9.53662 21.1815 9.83734C21.4705 10.1381 21.8645 10.3153 22.2812 10.332C22.7095 10.332 23.1201 10.1619 23.4229 9.85911C23.7257 9.55632 23.8958 9.14564 23.8958 8.71743C23.8958 8.28922 23.7257 7.87854 23.4229 7.57575C23.1201 7.27295 22.7095 7.10285 22.2812 7.10285V7.10543Z" fill="white"/>
</svg>
